<svg width="481" height="159" viewBox="0 0 481 159" fill="none" xmlns="http://www.w3.org/2000/svg">
<path fill-rule="evenodd" clip-rule="evenodd" d="M30.5495 111.754V26.295H0V0H92.0814V26.295H61.099V111.754H30.5495ZM219.836 17.9415H242.218V13.4973H226.822L242.218 4.60882V0H219.836V4.4113H235.232L219.836 13.2339V17.9415ZM240.496 26.4985C241.532 27.2071 242.38 28.1434 242.972 29.2309C243.51 30.3652 243.777 31.6033 243.752 32.852C243.788 34.2536 243.502 35.6453 242.916 36.9265C242.329 38.2076 241.456 39.346 240.36 40.2591C237.97 42.2188 234.906 43.2299 231.781 43.0902C228.665 43.2347 225.609 42.2225 223.235 40.2591C222.136 39.3265 221.263 38.1705 220.677 36.8732C220.091 35.576 219.806 34.1695 219.843 32.7534C219.755 30.4009 220.47 28.0859 221.878 26.1694C222.538 25.322 223.368 24.6136 224.318 24.0873C225.268 23.561 226.319 23.2278 227.406 23.1078V27.6508C226.334 27.8792 225.39 28.4901 224.761 29.3625C224.114 30.3425 223.795 31.4919 223.845 32.6545C223.808 33.4738 223.973 34.2898 224.327 35.0343C224.681 35.7789 225.213 36.4303 225.88 36.9341C227.546 38.0569 229.553 38.6021 231.577 38.4815C233.622 38.6012 235.647 38.0314 237.308 36.8684C237.988 36.3371 238.53 35.6579 238.889 34.8858C239.248 34.1138 239.416 33.2705 239.377 32.4241C239.414 31.1252 238.955 29.8591 238.088 28.8688C237.203 27.914 236.005 27.2858 234.697 27.091V32.029H230.933V23.0089H243.073V26.0048L240.496 26.4985ZM221.01 46.4122H243.426V50.8893H221.01V46.4122ZM236.473 71.3659V66.9545C237.004 66.9115 237.52 66.7604 237.988 66.5108C238.455 66.2612 238.863 65.9188 239.186 65.506C239.851 64.4501 240.16 63.2182 240.067 61.9835C240.137 60.9597 239.889 59.9392 239.355 59.0535C239.122 58.7269 238.806 58.4645 238.438 58.2914C238.069 58.1184 237.661 58.0407 237.252 58.066C235.896 58.066 234.777 59.9753 233.861 63.7611V64.222C233.6 65.7415 233.084 67.2093 232.335 68.5675C231.836 69.3206 231.132 69.9247 230.3 70.3124C229.342 70.7302 228.299 70.9327 227.248 70.9049C226.301 70.9636 225.354 70.7998 224.486 70.4273C223.618 70.0548 222.856 69.4845 222.263 68.765C220.974 66.9412 220.353 64.7502 220.5 62.5431C220.373 60.4049 221.034 58.2928 222.365 56.5845C223.012 55.8593 223.815 55.2803 224.717 54.8879C225.619 54.4955 226.599 54.2993 227.587 54.313V58.5928C227.11 58.6149 226.642 58.7347 226.215 58.9446C225.789 59.1546 225.413 59.4498 225.112 59.8108C224.448 60.7811 224.149 61.9436 224.264 63.1029C224.204 64.0529 224.453 64.9972 224.976 65.8023C225.204 66.1083 225.505 66.3554 225.854 66.5219C226.203 66.6883 226.588 66.769 226.977 66.7569C228.164 66.7569 229.046 65.506 229.656 63.037C229.741 62.7081 229.809 62.4121 229.868 62.1531L229.868 62.1525C229.927 61.8932 229.978 61.6709 230.029 61.4898C230.436 59.9096 230.775 58.7903 231.013 58.1978C231.212 57.603 231.473 57.0293 231.793 56.4859C232.248 55.6446 232.942 54.9477 233.793 54.4778C234.729 54.0224 235.765 53.7963 236.812 53.8194C237.83 53.7662 238.848 53.9437 239.784 54.3379C240.719 54.7322 241.548 55.3323 242.204 56.0908C243.636 57.9916 244.322 60.3267 244.137 62.6749C244.312 65.0271 243.614 67.3626 242.17 69.2589C241.49 70.0481 240.639 70.6816 239.677 71.1141C238.716 71.5466 237.668 71.7675 236.608 71.7609L236.473 71.3659ZM221.01 90.2919H243.392V73.9635H239.255V85.8806H233.49V75.4778H229.658V85.8806H224.91V74.4902H221.01V90.2919ZM221.011 103.228V111.755H243.393L243.427 104.446C243.467 102.886 243.308 101.327 242.952 99.8045C242.659 98.7356 242.139 97.7378 241.426 96.8746C240.435 95.6874 239.136 94.7783 237.662 94.241C235.933 93.5906 234.09 93.2775 232.236 93.3193C229.203 93.0922 226.192 93.9727 223.792 95.7884C222.811 96.7658 222.056 97.9348 221.576 99.2176C221.097 100.5 220.904 101.867 221.011 103.228ZM239.358 103.788V107.376H224.911V103.228C224.852 102.466 224.981 101.701 225.288 100.996C225.595 100.292 226.07 99.6691 226.675 99.179C228.329 98.1875 230.263 97.7269 232.202 97.8623C234.136 97.7087 236.065 98.2088 237.662 99.2779C238.27 99.8618 238.737 100.569 239.03 101.349C239.323 102.128 239.435 102.961 239.358 103.788ZM104.052 0V111.754H134.457V69.0243H175.334V111.754H205.884V1.25384e-05L175.334 0V42.7293H134.601V0H104.052ZM256.439 111.754V0H285.534L329.176 69.0243V0H358.271V111.754H329.176L285.534 42.7293V111.754H256.439ZM372.237 0V111.754H400.531V72.3112L408.249 63.3108L445.632 111.754H481L429.717 45.6896L477.463 0H438.927L400.531 35.829V0H372.237Z" fill="#111111"/>
<path d="M289.23 140.397L286.261 147.753H292.256L289.253 140.397H289.23ZM283.514 154.563H281L287.972 137.754H290.824L297.797 154.563H295.038L293.152 149.953H285.365L283.514 154.563Z" fill="#111111"/>
<path d="M304.036 154.563V137.754H306.562V144.948H315.257V137.754H317.783V154.563H315.257V147.148H306.562V154.563H304.036Z" fill="#111111"/>
<path d="M325.477 152.991C327.397 152.991 328.794 152.083 328.794 150.186V148.068C327.828 148.405 327.13 148.591 326.385 148.766C323.766 149.406 322.963 149.814 322.963 151.036V151.047C322.974 152.293 323.847 152.991 325.477 152.991ZM324.965 154.9C322.357 154.9 320.39 153.48 320.39 151.152V151.129C320.39 148.498 322.45 147.509 326.501 146.973C328.55 146.694 328.783 146.45 328.783 145.53V145.507C328.783 144.273 327.84 143.668 326.245 143.668C324.569 143.668 323.428 144.354 323.382 145.937H320.949C320.949 143.086 323.416 141.782 326.257 141.782C329.341 141.782 331.227 142.806 331.215 145.879L331.192 150.442C331.18 152.235 331.262 153.399 331.565 154.563H329.108C329.039 154.144 328.969 153.853 328.946 153.352C328.166 154.237 327.025 154.9 324.965 154.9Z" fill="#111111"/>
<path d="M337.711 154.563L332.752 142.143H335.394L339.142 152.107H339.154L342.995 142.143H345.393L340.446 154.563H337.711Z" fill="#111111"/>
<path d="M351.178 152.991C353.099 152.991 354.496 152.083 354.496 150.186V148.068C353.529 148.405 352.831 148.591 352.086 148.766C349.467 149.406 348.664 149.814 348.664 151.036V151.047C348.675 152.293 349.548 152.991 351.178 152.991ZM350.666 154.9C348.059 154.9 346.091 153.48 346.091 151.152V151.129C346.091 148.498 348.152 147.509 352.202 146.973C354.251 146.694 354.484 146.45 354.484 145.53V145.507C354.484 144.273 353.541 143.668 351.946 143.668C350.27 143.668 349.129 144.354 349.083 145.937H346.65C346.65 143.086 349.118 141.782 351.958 141.782C355.043 141.782 356.928 142.806 356.917 145.879L356.893 150.442C356.882 152.235 356.963 153.399 357.266 154.563H354.81C354.74 154.144 354.67 153.853 354.647 153.352C353.867 154.237 352.726 154.9 350.666 154.9Z" fill="#111111"/>
<path d="M364.82 154.9C361.538 154.9 359.489 153.457 359.21 150.768H361.643C361.875 152.444 363.086 153.038 364.89 153.038C366.438 153.038 367.544 152.514 367.544 151.373V151.35C367.544 150.116 366.462 149.779 364.972 149.453L363.156 149.057C361.119 148.615 359.547 147.52 359.547 145.414V145.39C359.547 143.26 361.712 141.805 364.506 141.805C367.288 141.805 369.244 142.864 369.593 145.46H367.16C366.892 144.04 365.833 143.656 364.39 143.656C363.004 143.656 361.968 144.25 361.968 145.262V145.286C361.968 146.24 362.69 146.706 363.889 146.962L365.705 147.357C368.103 147.881 369.965 148.673 369.965 151.036V151.059C369.965 153.515 367.742 154.9 364.82 154.9Z" fill="#111111"/>
<path d="M382.711 154.9C378.951 154.9 376.542 152.176 376.542 148.347V148.324C376.542 144.506 379.01 141.805 382.769 141.805C386.029 141.805 388.124 143.586 388.578 146.193H386.098C385.691 144.669 384.445 143.819 382.734 143.819C380.639 143.819 379.114 145.46 379.114 148.324V148.347C379.114 151.222 380.639 152.887 382.734 152.887C384.445 152.887 385.691 152.014 386.098 150.489H388.578C388.124 153.096 385.97 154.9 382.711 154.9Z" fill="#111111"/>
<path d="M396.435 154.9C392.547 154.9 390.149 152.118 390.149 148.347V148.324C390.149 144.564 392.547 141.805 396.435 141.805C400.323 141.805 402.709 144.564 402.709 148.324V148.347C402.709 152.118 400.323 154.9 396.435 154.9ZM396.435 152.887C398.891 152.887 400.136 151.012 400.136 148.347V148.324C400.136 145.67 398.891 143.819 396.435 143.819C393.979 143.819 392.722 145.67 392.722 148.324V148.347C392.722 151.012 393.979 152.887 396.435 152.887Z" fill="#111111"/>
<path d="M405.351 154.563V142.143H407.784V143.633C408.599 142.538 409.716 141.805 411.555 141.805C413.487 141.805 414.814 142.643 415.49 144.098C416.63 142.469 418.05 141.805 419.866 141.805C422.893 141.805 424.394 143.831 424.394 147.148V154.563H421.961V147.66C421.961 145.204 421.007 143.865 419.017 143.865C417.038 143.865 416.095 145.204 416.095 147.66V154.563H413.662V147.66C413.662 145.204 412.696 143.865 410.717 143.865C408.738 143.865 407.784 145.204 407.784 147.66V154.563H405.351Z" fill="#111111"/>
<path d="M433.695 152.875C435.778 152.875 437.315 151.385 437.315 148.37V148.335C437.315 145.32 435.778 143.831 433.695 143.831C431.623 143.831 430.075 145.32 430.075 148.335V148.37C430.075 151.385 431.623 152.875 433.695 152.875ZM434.09 154.9C432.321 154.9 430.889 154.085 430.156 152.933V158.439H427.723V142.143H430.156V143.772C430.889 142.62 432.321 141.805 434.09 141.805C437.28 141.805 439.887 144.215 439.887 148.335V148.37C439.887 152.491 437.28 154.9 434.09 154.9Z" fill="#111111"/>
<path d="M446.697 152.991C448.617 152.991 450.014 152.083 450.014 150.186V148.068C449.048 148.405 448.35 148.591 447.605 148.766C444.986 149.406 444.182 149.814 444.182 151.036V151.047C444.194 152.293 445.067 152.991 446.697 152.991ZM446.184 154.9C443.577 154.9 441.61 153.48 441.61 151.152V151.129C441.61 148.498 443.67 147.509 447.721 146.973C449.77 146.694 450.002 146.45 450.002 145.53V145.507C450.002 144.273 449.06 143.668 447.465 143.668C445.789 143.668 444.648 144.354 444.601 145.937H442.169C442.169 143.086 444.636 141.782 447.477 141.782C450.561 141.782 452.447 142.806 452.435 145.879L452.412 150.442C452.4 152.235 452.482 153.399 452.784 154.563H450.328C450.259 154.144 450.189 153.853 450.165 153.352C449.386 154.237 448.245 154.9 446.184 154.9Z" fill="#111111"/>
<path d="M455.776 154.563V142.143H458.209V143.633C459.024 142.538 460.141 141.805 461.98 141.805C464.995 141.805 466.52 143.831 466.52 147.148V154.563H464.087V147.66C464.087 145.204 463.121 143.865 461.142 143.865C459.163 143.865 458.209 145.204 458.209 147.66V154.563H455.776Z" fill="#111111"/>
<path d="M469.954 158.439V156.379H470.501C472.165 156.379 472.526 156.227 473.05 154.737L473.131 154.504L467.951 142.143H470.57L474.447 151.699H474.47L478.509 142.143H481L475.424 154.935C474.109 157.95 473.539 158.439 470.64 158.439H469.954Z" fill="#111111"/>
</svg>
