<svg width="1071" height="551" viewBox="0 0 1071 551" fill="none" xmlns="http://www.w3.org/2000/svg">
<path d="M730.832 550.854L809.066 438.681V443.858L737.735 340.889H769.661L824.597 421.423H829.199L884.998 340.889H915.486L842.142 445.009L841.855 439.831L921.239 550.854H889.313L826.611 462.554H822.009L761.32 550.854H730.832Z" fill="#343434"/>
<path d="M730.832 324.019V114.054H759.019V324.019H730.832Z" fill="#343434"/>
<path d="M515.993 550.854C481.149 550.854 449.495 543.493 421.031 528.77C392.567 514.047 369.992 492.208 353.306 463.253C337.111 434.298 329.014 398.228 329.014 355.041L329.014 212.786H401.156V368.291C401.156 405.098 411.952 433.808 433.546 454.42C455.139 474.541 482.622 484.601 515.993 484.601C549.365 484.601 576.848 474.541 598.441 454.42C620.035 433.808 630.831 405.098 630.831 368.291V50.2787H702.973V355.041C702.973 398.228 694.63 434.298 677.944 463.253C661.749 492.208 639.42 514.047 610.956 528.77C582.982 543.493 551.328 550.854 515.993 550.854ZM399.683 65.0015V0.221191H702.973V65.0015H399.683Z" fill="#343434"/>
<path d="M206.009 550.854C162.512 550.854 125.469 543.684 94.8782 529.345C64.2875 515.006 40.8665 495.169 24.6151 469.836C8.36382 444.504 0.238159 415.825 0.238159 383.8H70.5012C70.5012 399.573 74.5641 415.347 82.6897 431.12C91.2933 446.893 105.394 460.038 124.991 470.553C145.066 481.069 172.072 486.327 206.009 486.327C237.555 486.327 263.366 481.786 283.441 472.704C303.516 463.145 318.334 450.956 327.893 436.139C337.453 420.844 342.233 404.353 342.233 386.668C342.233 365.159 332.912 347.474 314.271 333.612C295.63 319.273 268.385 310.43 232.536 307.084L174.462 302.065C128.098 298.242 91.0544 283.902 63.3315 259.047C35.6087 234.192 21.7473 201.451 21.7473 160.822C21.7473 128.798 29.3949 100.836 44.6903 76.937C60.4636 53.038 82.2117 34.3968 109.935 21.0133C137.657 7.15191 169.921 0.221191 206.726 0.221191C243.052 0.221191 275.077 6.91289 302.799 20.2963C330.522 33.6798 352.031 52.56 367.327 76.937C383.1 100.836 390.987 129.515 390.987 162.973H320.724C320.724 146.244 316.661 130.471 308.535 115.653C300.888 100.836 288.699 88.6475 271.97 79.0879C255.24 69.5283 233.492 64.7485 206.726 64.7485C180.915 64.7485 159.405 69.2893 142.198 78.3709C125.469 87.4525 112.802 99.402 104.199 114.219C96.0731 128.559 92.0103 144.093 92.0103 160.822C92.0103 179.942 99.419 196.91 114.236 211.727C129.054 226.545 151.041 235.148 180.198 237.538L238.272 242.557C274.121 245.425 304.95 253.073 330.761 265.5C357.05 277.45 377.125 293.701 390.987 314.254C405.326 334.329 412.496 358.467 412.496 386.668C412.496 418.693 403.892 447.132 386.685 471.987C369.478 496.842 345.34 516.201 314.271 530.062C283.202 543.923 247.115 550.854 206.009 550.854Z" fill="#343434"/>
<path fill-rule="evenodd" clip-rule="evenodd" d="M916.451 308.882L870.255 262.686L870.962 261.979L926.791 317.808C926.791 317.808 926.791 317.808 926.792 317.808C926.902 317.917 927.012 318.027 927.122 318.137C927.249 318.264 927.376 318.392 927.503 318.519C927.503 318.52 927.503 318.52 927.503 318.52L983.279 374.296L982.572 375.003L936.42 328.851C944.395 339.601 948.547 350.424 950.082 360.858C952.109 374.641 949.565 387.709 945.285 398.995C941.006 410.28 934.986 419.799 930.04 426.493C927.566 429.842 925.359 432.486 923.768 434.295C922.973 435.199 922.332 435.895 921.89 436.365C921.668 436.6 921.496 436.779 921.379 436.9C921.321 436.96 921.276 437.006 921.245 437.036L921.211 437.071L921.202 437.08L921.199 437.083C921.199 437.084 921.198 437.084 920.845 436.73C920.491 436.377 920.491 436.377 920.492 436.376L920.493 436.375L920.501 436.367L920.533 436.334C920.552 436.316 920.576 436.291 920.606 436.26C920.623 436.243 920.641 436.224 920.662 436.203C920.775 436.086 920.944 435.911 921.162 435.68C921.597 435.217 922.23 434.53 923.017 433.635C924.592 431.844 926.781 429.222 929.235 425.899C934.147 419.252 940.113 409.815 944.35 398.641C948.587 387.467 951.089 374.574 949.092 361.004C947.097 347.441 940.605 333.165 926.794 319.225C926.794 319.224 926.793 319.224 926.793 319.224L926.087 318.518C926.087 318.518 926.087 318.517 926.086 318.517C912.132 304.693 897.847 298.19 884.276 296.188C870.699 294.185 857.801 296.681 846.624 300.915C835.447 305.149 826.008 311.114 819.36 316.024C816.037 318.478 813.415 320.667 811.624 322.241C810.728 323.028 810.041 323.661 809.579 324.097C809.347 324.315 809.172 324.483 809.055 324.597C808.997 324.653 808.953 324.696 808.924 324.725L808.892 324.757L808.884 324.765L808.882 324.767C808.882 324.767 808.882 324.767 808.528 324.414C808.174 324.06 808.175 324.06 808.175 324.059L808.178 324.057L808.187 324.048L808.222 324.013C808.253 323.983 808.298 323.938 808.359 323.879C808.479 323.762 808.658 323.59 808.893 323.369C809.363 322.926 810.059 322.285 810.964 321.49C812.772 319.9 815.417 317.693 818.766 315.219C825.461 310.274 834.982 304.256 846.27 299.98C857.559 295.704 870.633 293.164 884.422 295.199C894.862 296.739 905.692 300.899 916.451 308.882Z" fill="#343434"/>
<ellipse cx="982.926" cy="374.649" rx="12.2185" ry="12.2185" transform="rotate(45 982.926 374.649)" fill="#5ECCC2"/>
<ellipse cx="926.52" cy="318.178" rx="12.2185" ry="12.2185" transform="rotate(45 926.52 318.178)" fill="white"/>
<ellipse cx="870.642" cy="262.299" rx="12.2185" ry="12.2185" transform="rotate(45 870.642 262.299)" fill="#FC7557"/>
<ellipse cx="808.922" cy="324.019" rx="12.2185" ry="12.2185" transform="rotate(45 808.922 324.019)" fill="#7F9DFF"/>
<ellipse cx="921.239" cy="436.336" rx="12.2185" ry="12.2185" transform="rotate(45 921.239 436.336)" fill="#FFC439"/>
</svg>
